<?xml version="1.0" encoding="UTF-8" standalone="no"?>
<!-- Created with Inkscape (http://www.inkscape.org/) -->

<svg
   xmlns:dc="http://purl.org/dc/elements/1.1/"
   xmlns:cc="http://creativecommons.org/ns#"
   xmlns:rdf="http://www.w3.org/1999/02/22-rdf-syntax-ns#"
   xmlns:svg="http://www.w3.org/2000/svg"
   xmlns="http://www.w3.org/2000/svg"
   xmlns:sodipodi="http://sodipodi.sourceforge.net/DTD/sodipodi-0.dtd"
   xmlns:inkscape="http://www.inkscape.org/namespaces/inkscape"
   width="500"
   height="500"
   viewBox="0 0 132.29166 132.29167"
   version="1.1"
   id="svg409"
   inkscape:export-filename="/home/cias/Pulpit/github-profile.png"
   inkscape:export-xdpi="96"
   inkscape:export-ydpi="96"
   inkscape:version="0.92.4 (unknown)"
   sodipodi:docname="project-go_logo.svg">
  <defs
     id="defs403" />
  <sodipodi:namedview
     id="base"
     pagecolor="#ffffff"
     bordercolor="#666666"
     borderopacity="1.0"
     inkscape:pageopacity="0.0"
     inkscape:pageshadow="2"
     inkscape:zoom="1.04"
     inkscape:cx="400"
     inkscape:cy="245.41481"
     inkscape:document-units="mm"
     inkscape:current-layer="layer1"
     showgrid="false"
     units="px"
     inkscape:window-width="1366"
     inkscape:window-height="704"
     inkscape:window-x="0"
     inkscape:window-y="27"
     inkscape:window-maximized="1" />
  <metadata
     id="metadata406">
    <rdf:RDF>
      <cc:Work
         rdf:about="">
        <dc:format>image/svg+xml</dc:format>
        <dc:type
           rdf:resource="http://purl.org/dc/dcmitype/StillImage" />
        <dc:title></dc:title>
      </cc:Work>
    </rdf:RDF>
  </metadata>
  <g
     inkscape:label="Layer 1"
     inkscape:groupmode="layer"
     id="layer1"
     transform="translate(0,-164.70832)">
    <path
       style="fill:#000000;stroke-width:0.1665656"
       d="M 91.31617,168.92032 3.6608313,205.31938 10.63961,222.12539 c 5.675743,-5.89447 13.753069,-9.5347 22.806336,-9.5347 12.937835,0 25.152625,7.79493 29.009863,18.4826 H 49.51778 c -3.616161,-5.06239 -9.401926,-7.87492 -16.312815,-7.87492 -5.705491,0 -10.928832,2.08897 -14.384272,5.78561 -1.294219,1.38663 -2.410284,3.06929 -3.295647,4.90641 l 11.887772,28.62756 c 2.011913,0.61141 4.171524,0.94008 6.434994,0.94008 7.87519,0 14.303939,-3.85695 17.437949,-10.44649 H 26.696058 V 242.7254 h 38.813424 v 1.44659 c 0,7.63408 -3.053777,15.027 -8.518198,20.73263 -5.866223,6.02669 -13.500419,9.16101 -22.500613,9.16101 -0.779357,0 -1.550414,-0.0271 -2.313749,-0.0748 l 7.883222,18.98403 50.009292,-20.76662 C 78.095933,267.9442 69.687988,256.78063 69.687988,243.3684 c 0,-17.35751 13.660895,-30.77758 31.340012,-30.77758 3.12844,0 6.14123,0.46636 8.9759,1.33249 z m 9.55135,54.27805 c -11.411181,0 -20.089944,8.67844 -20.089944,20.16986 0,11.25042 8.839517,20.0898 20.089944,20.0898 11.25006,0 19.60731,-8.518 19.60731,-20.00937 0,-2.73981 -0.49686,-5.33078 -1.40279,-7.6873 l -0.41749,-1.00545 c -3.08812,-6.90767 -9.80313,-11.55754 -17.78703,-11.55754 z"
       id="rect390"
       inkscape:connector-curvature="0" />
  </g>
</svg>
